<?xml version="1.0" standalone="no"?>
<!DOCTYPE svg PUBLIC "-//W3C//DTD SVG 20010904//EN"
 "http://www.w3.org/TR/2001/REC-SVG-20010904/DTD/svg10.dtd">
<svg version="1.0" xmlns="http://www.w3.org/2000/svg"
 width="576.000000pt" height="576.000000pt" viewBox="0 0 576.000000 576.000000"
 preserveAspectRatio="xMidYMid meet">
<metadata>
Created by potrace 1.14, written by Peter Selinger 2001-2017
</metadata>
<g transform="translate(0.000000,576.000000) scale(0.100000,-0.100000)"
fill="#000000" stroke="none">
<path d="M2617 5544 c-1 -1 -65 -5 -142 -8 -161 -8 -248 -16 -325 -31 -13 -2
-42 -7 -65 -11 -76 -11 -220 -45 -300 -70 -44 -15 -84 -27 -90 -29 -5 -1 -23
-7 -38 -13 -16 -7 -30 -12 -31 -12 -2 0 -30 -12 -62 -27 -33 -15 -61 -27 -64
-28 -49 -14 -313 -168 -380 -221 -136 -109 -231 -199 -295 -279 -16 -20 -39
-47 -50 -59 -71 -75 -236 -362 -290 -506 -16 -41 -32 -79 -35 -85 -4 -5 -6
-21 -6 -35 1 -23 17 -30 301 -126 165 -56 307 -104 315 -107 8 -3 24 -7 35
-10 11 -3 131 -43 267 -90 136 -46 251 -81 256 -78 4 3 16 36 25 73 18 75 80
223 104 251 9 9 13 17 9 17 -12 0 111 154 161 201 115 108 273 185 443 214
120 20 359 26 470 12 30 -4 62 -8 70 -8 30 -2 155 -31 165 -39 9 -7 45 -17 70
-20 6 -1 15 -5 20 -10 6 -4 32 -20 58 -35 27 -14 58 -34 70 -43 43 -33 147
-140 147 -151 0 -6 3 -11 8 -11 14 0 74 -112 101 -191 39 -110 45 -168 46
-394 l0 -190 -715 -2 c-797 -1 -951 -6 -1095 -30 -22 -3 -49 -7 -60 -8 -39 -4
-111 -17 -170 -31 -33 -8 -68 -17 -78 -19 -10 -2 -27 -7 -37 -10 -10 -3 -27
-8 -37 -10 -10 -2 -38 -11 -63 -20 -25 -9 -52 -18 -60 -20 -72 -16 -330 -141
-397 -191 -17 -13 -36 -24 -41 -24 -6 0 -12 -3 -14 -7 -2 -5 -28 -27 -58 -50
-255 -195 -432 -481 -494 -799 -9 -44 -19 -92 -22 -109 -9 -41 -10 -438 -2
-500 11 -79 20 -129 24 -136 2 -4 6 -23 10 -43 21 -134 129 -378 223 -503 86
-114 211 -241 305 -308 16 -11 33 -25 40 -30 86 -79 438 -248 565 -272 14 -2
28 -6 33 -9 4 -3 16 -7 25 -9 10 -2 52 -11 93 -20 65 -14 132 -25 244 -40 161
-23 502 -23 671 0 101 14 126 18 185 31 119 26 125 28 210 61 166 63 367 191
472 300 91 92 191 244 245 368 l21 50 96 1 c61 0 96 -4 97 -10 2 -38 10 -112
13 -130 8 -41 49 -151 62 -167 8 -8 14 -21 14 -27 0 -7 35 -47 78 -90 84 -84
117 -112 131 -112 5 0 16 -6 23 -13 35 -33 202 -95 321 -118 50 -9 197 -21
247 -20 31 1 76 0 100 -2 14 -2 40 0 58 4 17 4 34 3 37 -1 3 -4 21 -4 40 0 19
4 37 4 40 0 3 -4 21 -4 40 0 19 4 37 4 40 0 3 -4 21 -4 40 0 19 4 37 4 40 0 3
-4 21 -4 40 0 19 4 37 4 40 0 3 -4 21 -4 40 0 19 4 37 4 40 0 3 -4 21 -4 40 0
19 4 37 4 40 0 3 -4 21 -4 41 0 19 5 47 5 62 1 28 -8 53 -4 62 10 4 6 5 956 1
1034 -1 19 -8 20 -223 21 -123 0 -239 3 -258 6 -46 7 -98 31 -131 60 -32 28
-70 106 -76 156 -2 20 -6 525 -8 1122 -2 597 -6 1103 -9 1125 -19 145 -25 184
-31 205 -2 8 -7 31 -10 50 -3 19 -8 43 -11 52 -3 9 -7 27 -9 39 -5 27 -33 117
-45 144 -11 26 -24 70 -20 70 8 0 -131 258 -171 316 -78 116 -172 220 -289
319 -36 30 -67 57 -70 60 -3 3 -26 19 -52 35 -27 17 -48 33 -48 38 0 4 -5 7
-12 7 -6 0 -19 6 -27 14 -39 33 -337 177 -396 191 -5 1 -17 5 -25 8 -62 23
-259 75 -317 82 -12 2 -36 6 -53 10 -37 8 -66 12 -140 20 -30 3 -65 8 -77 11
-27 5 -401 22 -406 18z m968 -3241 c-5 -128 -8 -166 -20 -213 -3 -14 -8 -37
-10 -51 -3 -24 -37 -122 -66 -196 -8 -18 -17 -33 -20 -33 -4 0 -13 -16 -19
-35 -6 -19 -16 -35 -21 -35 -5 0 -9 -7 -9 -15 0 -8 -4 -15 -10 -15 -5 0 -10
-4 -10 -10 0 -24 -159 -188 -235 -241 -122 -87 -262 -153 -400 -188 -149 -37
-220 -45 -400 -46 -170 0 -281 13 -365 40 -3 1 -18 5 -35 10 -98 26 -234 113
-308 196 -178 201 -183 546 -11 731 43 46 104 100 104 92 0 -4 8 0 18 9 27 25
166 84 207 88 2 0 19 4 37 10 18 5 60 12 93 15 33 4 62 8 64 10 2 2 323 4 713
4 l709 0 -6 -127z"/>
</g>
</svg>
